<?xml version="1.0" encoding="utf-8"?>
<!-- Generator: $$$/GeneralStr/196=Adobe Illustrator 27.6.0, SVG Export Plug-In . SVG Version: 6.00 Build 0)  -->
<svg version="1.1" id="Livello_1" xmlns="http://www.w3.org/2000/svg" xmlns:xlink="http://www.w3.org/1999/xlink" x="0px" y="0px"
	 viewBox="0 0 193.01 193.01" style="enable-background:new 0 0 193.01 193.01;" xml:space="preserve"
	 className="svg-dark">
<g>
	<path className="svg-dark" d="M65.06,0.38c2.88,1.1,5.01,3.18,7.14,5.31c27.74,27.75,55.5,55.49,83.26,83.23c5.02,5.01,5,10.56-0.05,15.61
		c-28.32,28.32-56.65,56.64-84.96,84.97c-2.75,2.76-5.94,4.24-9.82,3.29c-3.91-0.95-6.44-3.48-7.34-7.46
		c-0.84-3.69,0.42-6.75,3.03-9.36c5.98-5.98,11.96-11.96,17.94-17.94c19.81-19.8,39.61-39.61,59.42-59.41
		c1.9-1.9,1.91-1.92,0.02-3.81c-25.66-25.67-51.32-51.34-77-76.99c-1.97-1.97-3.46-4.14-3.63-6.99c-0.25-4.38,1.94-7.88,5.97-9.71
		c0.51-0.23,1-0.5,1.51-0.74C62.05,0.38,63.56,0.38,65.06,0.38z"/>
</g>
</svg>
